<svg xmlns="http://www.w3.org/2000/svg" xml:space="preserve" viewBox="0 0 512 512" id="play">
  <path d="M501.089 142.428v227.143a61.26 61.26 0 0 1-17.95 43.314c-25.446 25.436-44.849 44.814-70.265 70.249a61.25 61.25 0 0 1-43.319 17.955H142.421a61.25 61.25 0 0 1-43.295-17.932c-25.456-25.446-44.863-44.828-70.288-70.272a61.26 61.26 0 0 1-17.927-43.291V142.405a61.26 61.26 0 0 1 17.927-43.291C54.262 73.67 73.669 54.288 99.125 28.842A61.25 61.25 0 0 1 142.42 10.91h227.135a61.25 61.25 0 0 1 43.319 17.955c25.416 25.435 44.819 44.813 70.265 70.249a61.26 61.26 0 0 1 17.95 43.314" style="fill:#f5f5e3"></path>
  <path d="M434.859 255.967c0 98.788-80.071 178.924-178.86 178.924S77.14 354.755 77.14 255.967 157.211 77.107 256 77.107s178.859 80.071 178.859 178.86" style="fill:#f68c3d"></path>
  <path d="m233.171 164.792 102.469 65.01c19.194 12.177 19.198 40.183.008 52.367l-102.433 65.033c-20.643 13.106-47.626-1.72-47.633-26.172l-.037-130.042c-.006-24.457 26.976-39.297 47.626-26.196" style="fill:#f1f0fe"></path>
  <path d="M416.342 25.401C404.028 13.08 386.974 6.009 369.555 6.009H142.421c-17.664 0-34.269 6.879-46.761 19.368L25.37 95.648c-12.484 12.499-19.361 29.104-19.361 46.758v227.186c0 17.654 6.876 34.26 19.361 46.758l70.291 70.272c12.491 12.489 29.097 19.368 46.761 19.368h227.134c17.42 0 34.473-7.07 46.787-19.392l70.262-70.248c12.321-12.317 19.387-29.368 19.387-46.782V142.426c0-17.415-7.065-34.461-19.387-46.778zm79.845 344.168c0 14.835-6.02 29.358-16.515 39.851l-70.267 70.248c-10.488 10.498-25.014 16.52-39.851 16.52H142.421c-15.045 0-29.191-5.859-39.829-16.496L32.306 409.42c-10.481-10.488-16.493-25.007-16.493-39.827V142.407c0-15.04 5.857-29.186 16.493-39.827l70.286-70.272c10.639-10.636 24.784-16.496 39.829-16.496h227.134c14.837 0 29.363 6.022 39.851 16.52l70.267 70.248c10.495 10.493 16.515 25.016 16.515 39.846z"></path>
  <path d="M256 72.207c-101.327 0-183.762 82.435-183.762 183.759 0 101.363 82.435 183.827 183.762 183.827s183.762-82.464 183.762-183.827c0-101.324-82.435-183.759-183.762-183.759m0 357.782c-95.92 0-173.958-78.065-173.958-174.023C82.042 160.046 160.08 82.01 256 82.01s173.958 78.036 173.958 173.956c0 95.959-78.038 174.023-173.958 174.023"></path>
  <path d="M338.265 225.661 235.797 160.65c-23.929-15.188-55.162 1.986-55.152 30.339l.036 130.041c.01 28.35 31.234 45.5 55.164 30.311l102.432-65.035c22.198-14.089 22.234-46.526-.012-60.645m-5.244 52.373-102.432 65.03c-17.402 11.043-40.1-1.431-40.105-22.034l-.036-130.041c-.005-20.639 22.73-33.091 40.097-22.058l102.468 65.011c16.173 10.254 16.152 33.839.008 44.092"></path>
</svg>
